<?xml version="1.0" encoding="UTF-8" standalone="no"?>
<!-- Generator: Adobe Illustrator 24.1.0, SVG Export Plug-In . SVG Version: 6.00 Build 0)  -->

<svg
   version="1.1"
   id="Calque_1"
   x="0px"
   y="0px"
   viewBox="0 0 900 500"
   xml:space="preserve"
   sodipodi:docname="logo.svg"
   inkscape:version="1.1.2 (0a00cf5339, 2022-02-04)"
   inkscape:export-filename="./favicon-16.png"
   inkscape:export-xdpi="5.1199999"
   inkscape:export-ydpi="5.1199999"
   width="900"
   height="500"
   xmlns:inkscape="http://www.inkscape.org/namespaces/inkscape"
   xmlns:sodipodi="http://sodipodi.sourceforge.net/DTD/sodipodi-0.dtd"
   xmlns="http://www.w3.org/2000/svg"
   xmlns:svg="http://www.w3.org/2000/svg"
   xmlns:rdf="http://www.w3.org/1999/02/22-rdf-syntax-ns#"
   xmlns:cc="http://creativecommons.org/ns#"
   xmlns:dc="http://purl.org/dc/elements/1.1/"><metadata
   id="metadata17"><rdf:RDF><cc:Work
       rdf:about=""><dc:format>image/svg+xml</dc:format><dc:type
         rdf:resource="http://purl.org/dc/dcmitype/StillImage" /></cc:Work></rdf:RDF></metadata><defs
   id="defs15" /><sodipodi:namedview
   pagecolor="#ffffff"
   bordercolor="#666666"
   borderopacity="1"
   objecttolerance="10"
   gridtolerance="10"
   guidetolerance="10"
   inkscape:pageopacity="0"
   inkscape:pageshadow="2"
   inkscape:window-width="1855"
   inkscape:window-height="1056"
   id="namedview13"
   showgrid="false"
   inkscape:zoom="0.78666668"
   inkscape:cx="564.40677"
   inkscape:cy="176.69491"
   inkscape:window-x="65"
   inkscape:window-y="24"
   inkscape:window-maximized="1"
   inkscape:current-layer="g1201"
   showguides="false"
   inkscape:guide-bbox="true"
   inkscape:pagecheckerboard="0"
   width="1000px" />
<style
   type="text/css"
   id="style2">
	.st0{fill:#5AB88F;}
	.st1{fill:#E73452;}
</style>

<flowRoot
   xml:space="preserve"
   id="flowRoot848"
   style="font-style:normal;font-variant:normal;font-weight:normal;font-stretch:normal;font-size:42.6667px;line-height:125%;font-family:'Helvetica Now Display';-inkscape-font-specification:'Helvetica Now Display';letter-spacing:0px;word-spacing:0px;fill:#000000;fill-opacity:1;stroke:none;stroke-width:1px;stroke-linecap:butt;stroke-linejoin:miter;stroke-opacity:1"><flowRegion
     id="flowRegion850"><rect
       id="rect852"
       width="251.69492"
       height="258.05084"
       x="-298.72882"
       y="-209.74576" /></flowRegion><flowPara
     id="flowPara854" /></flowRoot><flowRoot
   xml:space="preserve"
   id="flowRoot856"
   style="font-style:normal;font-variant:normal;font-weight:normal;font-stretch:normal;font-size:42.6667px;line-height:125%;font-family:'Helvetica Now Display';-inkscape-font-specification:'Helvetica Now Display';letter-spacing:0px;word-spacing:0px;fill:#000000;fill-opacity:1;stroke:none;stroke-width:1px;stroke-linecap:butt;stroke-linejoin:miter;stroke-opacity:1"><flowRegion
     id="flowRegion858"><rect
       id="rect860"
       width="1188.5593"
       height="122.0339"
       x="-582.20337"
       y="-291.10168" /></flowRegion><flowPara
     id="flowPara862" /></flowRoot><g
   id="g937"
   transform="matrix(1.2164546,0,0,1.2164546,179.99433,708.80287)"
   style="stroke-width:0.822061"><g
     id="g1201"
     transform="translate(-188.23209,-821.29642)"
     style="stroke-width:0.822061"><path
       id="path24649"
       style="fill:#ffffff;fill-opacity:1;stroke-width:0.822061"
       d="m 64.292762,466.17564 c -5.629302,0.10265 -11.409929,2.67036 -14.527274,7.49699 -2.00144,2.87811 -2.895927,6.32711 -3.435054,9.74515 -2.514319,13.85196 -2.765659,28.13972 -0.54992,42.04878 2.380306,14.59666 7.912135,28.84409 17.079585,40.53955 10.788743,13.89353 25.64952,24.11542 41.494171,31.45948 8.02335,3.70025 16.36534,6.75641 24.94317,8.88561 7.03759,1.32719 14.80329,-2.18715 18.13852,-8.59328 2.09675,-3.83172 2.52935,-8.26308 3.24689,-12.49862 2.39545,-16.65766 1.77891,-33.89028 -2.92128,-50.10383 -3.56769,-12.20802 -9.73774,-23.70289 -18.32721,-33.11728 -11.99262,-13.29416 -27.63751,-22.8136 -44.112419,-29.52762 -6.110589,-2.45336 -12.369554,-4.57819 -18.766817,-6.14289 -0.743787,-0.14421 -1.504716,-0.20827 -2.262362,-0.19204 z" /><path
       d="m 145.17847,593.03709 c -0.99936,3.14336 -2.89751,6.00082 -5.92836,7.75656 -3.03002,1.75587 -6.67359,2.32787 -9.88809,1.55285 -1.79594,-0.57079 -46.199433,-10.98292 -67.60511,-44.73744 -21.405016,-33.75414 -11.186584,-75.99444 -10.615373,-77.79037 0.999232,-3.14301 2.896677,-6.00138 5.927278,-7.75634 2.071313,-1.07186 4.29561,-1.84786 6.531087,-1.87923 1.040968,-0.16318 2.23419,-0.0352 3.356696,0.32919 1.796699,0.5715 46.199512,10.98251 67.605382,44.73688 21.40493,33.75434 11.18736,75.99444 10.61613,77.79064 z"
       fill="#4bb166"
       id="path23231"
       sodipodi:nodetypes="sscssccsss"
       style="fill:#166a5d;fill-opacity:1;stroke-width:0.822061" /><path
       id="path24615"
       style="font-weight:bold;font-size:153.887px;line-height:98.4%;font-family:'Barlow Condensed';-inkscape-font-specification:'Barlow Condensed, ';text-align:end;letter-spacing:0px;word-spacing:0px;text-anchor:end;fill:#ffffff;stroke-width:0.822063px"
       d="m 151.42389,284.77014 c -8.98407,0.10111 -18.17562,2.68997 -25.18251,8.47682 -6.758,5.42366 -11.29174,13.45143 -12.59753,22.00567 -1.18718,7.11829 -0.82467,14.54666 1.33559,21.44728 2.11768,6.32855 5.82402,12.05515 10.30475,16.96481 4.23134,4.48631 9.19833,8.18669 14.06482,11.94312 5.95368,4.47738 12.19386,8.6584 17.48666,13.93668 1.85291,1.83387 2.93866,4.37755 2.91194,6.99111 0.0428,2.87983 -0.99367,6.13417 -3.73377,7.50836 -2.27428,1.21911 -5.3317,0.62007 -6.93103,-1.42685 -2.09393,-2.36272 -2.13482,-5.69323 -2.07718,-8.67353 -0.006,-1.87781 0.15352,-3.94327 -1.07939,-5.51721 -1.17147,-1.6988 -3.14084,-2.83656 -5.228,-2.79439 -7.2408,0.0198 -14.48625,-0.0482 -21.72869,0.0375 -3.24011,0.31286 -5.81985,3.51139 -5.43715,6.74548 -0.0673,5.54686 -0.0363,11.19728 1.61773,16.54787 2.25549,7.96526 7.46151,15.06072 14.46294,19.49875 7.30658,4.72579 16.14413,6.6393 24.77347,6.4114 8.72071,-0.14684 17.61402,-2.57101 24.55556,-8.00442 6.85152,-5.2126 11.64715,-13.00109 13.27528,-21.45075 1.33217,-6.49335 1.36307,-13.29102 -0.10713,-19.76286 -1.90496,-7.64852 -6.47708,-14.4571 -12.30633,-19.68813 -6.65525,-6.14682 -13.9769,-11.49779 -21.18498,-16.96493 -3.59697,-2.85131 -7.36704,-5.6236 -10.18591,-9.29225 -2.34039,-3.35365 -2.59503,-7.97455 -0.93843,-11.66841 0.99871,-1.9335 3.11393,-3.28245 5.32205,-3.05139 1.97656,0.0134 3.64697,1.33325 4.63528,2.96098 1.78585,2.86275 1.31868,6.37696 1.35161,9.58697 -0.13897,2.40319 0.60625,5.16469 2.87988,6.36789 2.36079,1.31312 5.14674,0.71311 7.71716,0.84793 5.85397,-0.0197 11.71343,0.051 17.5639,-0.0556 3.32933,-0.31827 5.72471,-3.75796 5.32469,-6.99256 0.12641,-6.11346 -0.22847,-12.34772 -2.3187,-18.14975 -3.62072,-10.43878 -12.21986,-19.04031 -22.72957,-22.51045 -5.07661,-1.74688 -10.46667,-2.36591 -15.81706,-2.27513 z" /><path
       id="path24617"
       style="font-weight:bold;font-size:153.887px;line-height:98.4%;font-family:'Barlow Condensed';-inkscape-font-specification:'Barlow Condensed, ';text-align:end;letter-spacing:0px;word-spacing:0px;text-anchor:end;fill:#ffffff;stroke-width:0.822063px"
       d="m 226.6694,296.92998 c -6.61178,0.072 -13.22929,-0.0401 -19.84049,0.0539 -3.2716,0.28417 -5.8956,3.52282 -5.49018,6.78527 0,5.60845 0,11.21689 0,16.82533 -2.27903,0.0129 -4.84764,-0.31005 -6.74743,1.23339 -1.836,1.33425 -2.71268,3.68253 -2.45592,5.90668 0.0433,4.66279 -0.1052,9.33663 0.0929,13.99224 0.33007,2.31324 2.08881,4.40237 4.43942,4.81386 1.53895,0.37043 3.18905,0.19514 4.67111,0.19424 0.0166,17.61682 -0.0459,35.23495 0.0456,52.85095 0.21316,5.79963 1.60624,11.92162 5.67121,16.28174 3.79411,4.02153 9.31169,5.74656 14.60408,6.71539 6.22925,1.06053 12.58095,0.846 18.8705,0.77017 3.33014,-0.31946 5.73378,-3.76411 5.32192,-7.00193 -0.0339,-6.02113 0.0744,-12.04881 -0.0653,-18.06567 -0.45116,-2.97802 -3.30006,-5.42117 -6.33433,-5.28501 -1.44217,-0.14345 -3.23624,0.36572 -4.36989,-0.78789 -0.995,-1.68662 -0.74265,-3.7658 -0.80428,-5.64604 -0.0459,-13.27088 -0.021,-26.54239 -0.0196,-39.81299 2.88968,-0.0476 5.80148,0.149 8.67594,-0.14424 3.12746,-0.62173 5.15782,-3.96175 4.759,-7.03887 -0.0475,-4.61261 0.10401,-9.23804 -0.0915,-13.84237 -0.52366,-2.89933 -3.30637,-5.22483 -6.26727,-5.13879 -2.35881,-0.003 -4.71843,0.0161 -7.07847,0.002 -0.0149,-6.07386 0.0429,-12.15272 -0.0445,-18.22339 -0.39657,-3.0495 -3.29619,-5.54106 -6.38023,-5.42234 -0.38729,-0.0236 -0.77453,-0.0188 -1.16234,-0.0164 z" /><path
       id="path24619"
       style="font-weight:bold;font-size:153.887px;line-height:98.4%;font-family:'Barlow Condensed';-inkscape-font-specification:'Barlow Condensed, ';text-align:end;letter-spacing:0px;word-spacing:0px;text-anchor:end;fill:#ffffff;stroke-width:0.822063px"
       d="m 305.6944,286.22576 c -5.27935,0.0364 -10.72292,-7.6e-4 -16.06617,0.014 -2.83739,-0.19248 -5.66748,1.49676 -6.788,4.1213 -3.6714,6.40342 -7.42042,12.7661 -11.01369,19.21087 -1.34749,2.93834 0.73416,6.71213 3.90584,7.2314 2.29966,0.45471 4.65616,0.10508 6.98186,0.21498 3.2362,-0.0402 6.48708,0.12119 9.71337,-0.1238 2.6091,-0.44197 4.40801,-2.5904 5.80838,-4.66296 4.38941,-5.87666 8.87468,-11.68621 13.18261,-17.62073 1.40329,-2.28875 1.15656,-5.72695 -1.21016,-7.28707 -1.29514,-0.94797 -2.9519,-1.15101 -4.51404,-1.09799 z m -20.00899,32.92006 c -8.69177,0.2551 -17.62416,2.56224 -24.50391,8.08149 -6.65809,5.19993 -10.91849,13.20155 -11.84145,21.57098 -0.5999,5.17554 -0.21115,10.39535 -0.3226,15.59125 0.036,9.41849 -0.0866,18.83976 0.077,28.25641 0.38212,7.89899 3.24157,15.85641 8.83999,21.56387 5.99523,6.22261 14.52426,9.44687 23.00339,10.29297 7.32169,0.77637 14.83883,0.43168 21.94361,-1.58762 6.50933,-1.89323 12.53811,-5.75755 16.4789,-11.33554 4.18274,-5.82261 6.16548,-12.98753 6.59577,-20.07848 -0.0881,-3.25311 -3.20272,-5.92389 -6.4123,-5.73956 -7.1086,-0.34984 -14.2161,-0.80712 -21.32714,-1.05445 -3.02035,0.11814 -5.45633,2.76249 -5.8601,5.66946 -0.52988,1.90582 -1.73835,4.10215 -3.94831,4.25245 -1.97669,0.28812 -4.07355,-0.81933 -4.78313,-2.7225 -1.09333,-2.46234 -0.71088,-5.22569 -0.77377,-7.84032 12.72738,-0.0125 25.45777,0.0378 38.18324,-0.0398 3.38438,-0.25211 5.86544,-3.73466 5.44321,-7.01695 -0.043,-8.56992 0.0945,-17.1433 -0.0851,-25.71091 -0.43069,-7.77783 -3.45416,-15.50636 -8.96612,-21.09041 -5.21593,-5.48516 -12.32554,-8.95383 -19.74601,-10.23741 -3.95098,-0.7248 -7.98448,-0.92652 -11.99524,-0.82494 z m 2.38937,30.21007 c 2.48481,0.10483 4.10545,2.61938 4.42109,4.88022 0.30113,1.94658 0.0942,3.92086 0.13067,5.88017 -3.2545,0 -6.50897,0 -9.76346,0 0.0484,-2.55877 -0.31097,-5.2335 0.57102,-7.69001 0.72745,-1.90172 2.54061,-3.30649 4.64068,-3.07038 z" /><path
       id="path24621"
       style="font-weight:bold;font-size:153.887px;line-height:98.4%;font-family:'Barlow Condensed';-inkscape-font-specification:'Barlow Condensed, ';text-align:end;letter-spacing:0px;word-spacing:0px;text-anchor:end;fill:#ffffff;stroke-width:0.822063px"
       d="m 377.42254,319.13646 c -4.79081,0.14734 -9.60051,1.56698 -13.60143,4.16561 -1.21312,-1.70914 -3.24013,-2.79489 -5.35089,-2.71766 -7.35019,0.0573 -14.70931,-0.073 -22.05792,0.0686 -3.19747,0.36927 -5.68184,3.56297 -5.2983,6.75252 0.002,41.59711 -0.0159,83.19595 0.0257,124.79198 0.1919,3.42797 3.69822,5.99228 7.02163,5.56279 7.12586,-0.0168 14.25676,0.0455 21.37943,-0.0445 3.02266,-0.3953 5.50897,-3.26112 5.40778,-6.32136 0.005,-10.04824 0.002,-20.10103 0.002,-30.15117 4.99493,3.06238 11.05371,3.95787 16.82394,3.53141 5.53637,-0.4515 11.10931,-2.15426 15.45542,-5.7193 5.42421,-4.24143 8.56099,-10.7636 9.99271,-17.37723 1.3277,-5.86752 1.19808,-11.91387 1.16749,-17.8903 -0.0272,-10.93181 0.0766,-21.8659 -0.0689,-32.7962 -0.33521,-7.81692 -2.37775,-15.85703 -7.3777,-22.03611 -4.03509,-5.32101 -10.36158,-8.64241 -16.94057,-9.47169 -2.17804,-0.30982 -4.38306,-0.40877 -6.58126,-0.34728 z m -7.37875,30.03455 c 2.32021,-0.0108 3.9279,2.19344 4.26795,4.309 0.50629,2.80654 0.11634,5.67282 0.24329,8.50564 -0.0344,9.12122 0.0783,18.24581 -0.0671,27.36482 -0.21355,2.22672 -1.40737,4.84135 -3.85438,5.23042 -1.8017,0.37882 -3.80819,-0.42183 -4.64481,-2.10798 -1.53163,-2.7634 -0.91215,-6.03616 -1.03759,-9.05399 0.0219,-9.59029 -0.0571,-19.18312 0.0541,-28.77176 0.12839,-2.53753 1.76783,-5.65393 4.68374,-5.47894 0.11826,9.2e-4 0.23652,0.002 0.35479,0.002 z" /><path
       id="path24623"
       style="font-weight:bold;font-size:153.887px;line-height:98.4%;font-family:'Barlow Condensed';-inkscape-font-specification:'Barlow Condensed, ';text-align:end;letter-spacing:0px;word-spacing:0px;text-anchor:end;fill:#ffffff;stroke-width:0.822063px"
       d="m 437.85203,286.25149 c -6.44014,-0.0108 -12.8842,-0.0446 -19.3233,0.0187 -3.27414,0.27805 -5.90479,3.52123 -5.49954,6.78527 0.003,41.50753 -0.008,83.01581 0.014,124.52286 0.0542,2.56269 1.82399,5.104 4.4257,5.58766 1.98501,0.48232 3.93996,0.12965 5.90596,0.24138 6.11534,-0.0422 12.23975,0.0935 18.34922,-0.0815 3.30499,-0.41699 5.57271,-3.89149 5.14248,-7.09871 0.0126,-20.05725 -0.0367,-40.1156 0.0358,-60.17215 0.10039,-2.22851 0.48065,-4.91442 2.5595,-6.17956 1.7264,-0.90397 4.35001,-0.80503 5.38406,1.07957 1.71072,2.83375 1.11841,6.27149 1.24251,9.41589 0.0616,18.84845 -0.0337,37.69729 0.043,56.54554 -0.2112,2.68402 1.44768,5.57204 4.17969,6.18957 2.04828,0.56955 4.10003,0.18588 6.13796,0.30142 6.11533,-0.0422 12.23975,0.0935 18.34921,-0.0817 3.30502,-0.417 5.57268,-3.8915 5.14253,-7.09873 -0.014,-21.24084 0.0402,-42.48265 -0.0397,-63.72286 -0.22458,-8.01083 -1.88064,-16.29955 -6.60303,-22.93627 -3.9212,-5.70156 -10.47191,-9.31195 -17.2973,-10.10274 -6.50103,-0.91291 -13.50411,-0.16623 -19.13425,3.42027 -0.0151,-10.40952 0.0431,-20.82398 -0.0445,-31.23041 -0.39504,-3.02296 -3.25388,-5.51686 -6.31668,-5.4148 -0.88416,-0.0465 -1.76909,-0.0108 -2.65343,0.0108 z" /><path
       id="path24625"
       style="font-weight:bold;font-size:153.887px;line-height:98.4%;font-family:'Barlow Condensed';-inkscape-font-specification:'Barlow Condensed, ';text-align:end;letter-spacing:0px;word-spacing:0px;text-anchor:end;fill:#ffffff;stroke-width:0.822063px"
       d="m 531.59943,319.14582 c -8.69554,0.24249 -17.48942,2.91481 -24.28648,8.46819 -5.79046,4.55796 -10.00197,11.09922 -11.58873,18.3102 -0.58056,2.60638 -1.06343,5.29862 -0.86694,7.97276 0.41691,2.9182 3.31258,5.1198 6.23017,4.85848 7.6348,0.0515 15.27325,0.2061 22.90623,0.13688 2.91281,-0.27501 5.25838,-2.94115 5.34273,-5.83653 0.24408,-1.83572 1.61896,-3.65578 3.59695,-3.70693 1.66221,-0.16937 3.24982,0.73665 4.15389,2.1009 1.61784,1.93116 1.76351,4.59361 1.66627,7.00026 -8.08456,-0.0596 -16.30437,10e-4 -24.13783,2.25402 -5.58464,1.57004 -11.14779,4.12642 -15.0496,8.5443 -4.63257,5.30951 -6.47654,12.44609 -6.87901,19.34433 -0.36851,5.96636 -0.0249,12.04458 1.59301,17.82021 1.43511,4.99772 4.31414,9.74839 8.75212,12.60705 9.22239,6.32216 21.62708,7.58964 31.99667,3.4798 1.53598,-0.62617 3.00993,-1.41066 4.38225,-2.34245 0.97216,2.28707 3.55271,3.31217 5.9034,3.26717 7.08211,-0.0681 14.36075,0.0429 21.52724,-0.0524 3.51698,-0.0287 6.19098,-3.64877 5.74919,-7.02518 -0.015,-21.38994 0.0416,-42.78104 -0.0398,-64.17023 -0.23293,-7.99601 -3.33511,-15.97883 -9.02912,-21.66908 -6.28681,-6.48666 -15.06783,-10.20549 -23.99347,-11.06644 -2.63117,-0.28974 -5.28377,-0.36915 -7.92921,-0.29537 z m 2.67256,65.47504 c 1.49072,0 2.98145,0 4.47217,0 0.009,1.89891 0.0448,4.03668 -0.0186,5.78739 0.18039,2.7069 -1.86274,5.06731 -4.3063,5.95729 -2.04978,0.74889 -4.8033,0.87597 -6.36281,-0.91409 -1.12022,-1.94629 -1.14012,-4.3906 -0.61421,-6.53013 0.6785,-2.99565 4.01531,-4.41123 6.82987,-4.30046 z" /><path
       id="path24627"
       style="font-weight:bold;font-size:153.887px;line-height:98.4%;font-family:'Barlow Condensed';-inkscape-font-specification:'Barlow Condensed, ';text-align:end;letter-spacing:0px;word-spacing:0px;text-anchor:end;fill:#ffffff;stroke-width:0.822063px"
       d="m 623.97076,319.14114 c -4.85239,0.13944 -9.74669,1.63619 -13.7161,4.3622 -1.18722,-1.82699 -3.29496,-2.99796 -5.48661,-2.91898 -7.35636,0.0588 -14.72234,-0.0759 -22.07665,0.0709 -3.17699,0.37926 -5.65825,3.54835 -5.27958,6.72442 0.002,30.11125 -0.0158,60.22429 0.0257,90.33439 0.0899,2.51836 1.86627,4.97604 4.41399,5.45193 1.98502,0.48232 3.93996,0.12964 5.90597,0.24138 6.11454,-0.0422 12.23818,0.0935 18.34686,-0.0817 3.3058,-0.41667 5.57311,-3.89107 5.14251,-7.09872 0.0162,-20.09476 -0.0439,-40.19096 0.0415,-60.28481 0.10749,-2.20422 0.51869,-4.85581 2.58434,-6.0856 1.72157,-0.87351 4.31596,-0.78132 5.34596,1.087 1.72524,2.83338 1.12668,6.28483 1.25253,9.43419 0.0563,18.70584 -0.0298,37.41209 0.0406,56.11775 -0.23447,2.47301 0.87229,5.24222 3.25069,6.28271 2.09886,0.95207 4.44115,0.5406 6.5901,0.62952 6.2743,-0.0446 12.5577,0.0945 18.82614,-0.0821 3.30612,-0.41648 5.57225,-3.89122 5.14254,-7.09873 -0.0146,-21.2806 0.0412,-42.56227 -0.0406,-63.84218 -0.24321,-7.9717 -1.8977,-16.21733 -6.60269,-22.81894 -3.87495,-5.63532 -10.32085,-9.2174 -17.05388,-10.08084 -2.20169,-0.31657 -4.43113,-0.41034 -6.65329,-0.34402 z" /><path
       id="path24629"
       style="font-weight:bold;font-size:153.887px;line-height:98.4%;font-family:'Barlow Condensed';-inkscape-font-specification:'Barlow Condensed, ';text-align:end;letter-spacing:0px;word-spacing:0px;text-anchor:end;fill:#ffffff;stroke-width:0.822063px"
       d="m 676.67983,280.69111 c -5.63143,-0.0975 -11.35331,2.38255 -14.75984,6.93879 -4.10801,5.37718 -4.69588,12.93766 -2.28407,19.15246 2.05936,5.10993 6.65078,9.1029 12.02606,10.35356 6.26807,1.612 13.54511,0.17513 18.1171,-4.5895 3.62637,-3.67169 5.45119,-8.90026 5.21751,-14.02629 -0.0969,-4.91055 -2.0826,-9.8225 -5.74153,-13.15635 -3.32898,-3.20452 -8.00934,-4.71047 -12.57523,-4.67267 z m 9.75176,39.88225 c -6.94569,0.0665 -13.89628,-0.0303 -20.84211,0.0469 -3.2877,0.26396 -5.93404,3.51449 -5.52765,6.78995 0.008,30.10813 -0.028,60.218 0.028,90.32505 0.098,2.51167 1.87119,4.95635 4.41166,5.43085 1.98502,0.48233 3.93997,0.12965 5.90596,0.24138 6.11534,-0.0422 12.23975,0.0935 18.34921,-0.0817 3.30511,-0.41685 5.57232,-3.89169 5.14253,-7.09871 -0.003,-30.01369 0.0188,-60.0296 -0.0282,-90.04188 -0.29328,-3.09948 -3.21458,-5.69057 -6.33105,-5.59596 -0.36935,-0.0239 -0.73868,-0.018 -1.10854,-0.016 z" /><path
       id="path24631"
       style="font-weight:bold;font-size:153.887px;line-height:98.4%;font-family:'Barlow Condensed';-inkscape-font-specification:'Barlow Condensed, ';text-align:end;letter-spacing:0px;word-spacing:0px;text-anchor:end;fill:#ffffff;stroke-width:0.822063px"
       d="m 735.38925,319.14582 c -8.73144,0.25466 -17.70548,2.58639 -24.59832,8.15524 -6.69567,5.26781 -10.93313,13.37874 -11.7864,21.82481 -0.54419,5.14989 -0.17574,10.33632 -0.28548,15.50284 0.0358,9.33878 -0.0876,18.68033 0.0793,28.01724 0.38084,7.93914 3.27353,15.9342 8.92144,21.64953 5.9942,6.16641 14.48062,9.36559 22.92192,10.20731 7.28793,0.77398 14.76844,0.43285 21.8447,-1.55972 6.43027,-1.85093 12.40207,-5.61474 16.36185,-11.06853 4.33011,-5.86985 6.3721,-13.16335 6.81176,-20.37339 -0.0892,-3.25185 -3.20373,-5.92279 -6.41232,-5.73955 -7.11016,-0.34989 -14.21923,-0.80701 -21.33181,-1.05446 -3.01959,0.12015 -5.45475,2.7643 -5.85595,5.67167 -0.53078,1.87657 -1.69295,4.04566 -3.86292,4.24051 -2.00852,0.3231 -4.16181,-0.78927 -4.87847,-2.73205 -1.07668,-2.45847 -0.70165,-5.2139 -0.76329,-7.82104 12.72739,-0.0125 25.45777,0.0378 38.18325,-0.0398 3.38457,-0.25191 5.86161,-3.73627 5.4432,-7.01695 -0.043,-8.5676 0.0949,-17.13861 -0.0866,-25.70393 -0.42652,-7.85266 -3.51564,-15.65183 -9.11597,-21.2518 -5.22821,-5.43343 -12.32654,-8.8439 -19.71964,-10.10581 -3.91155,-0.7052 -7.90135,-0.90319 -11.87016,-0.80213 z m 2.39406,30.21007 c 2.51197,0.11514 4.12818,2.66923 4.42746,4.95561 0.27765,1.92359 0.0813,3.87033 0.11731,5.80478 -3.2537,0 -6.50741,0 -9.76111,0 0.0457,-2.53197 -0.29945,-5.17234 0.54002,-7.61017 0.7029,-1.94055 2.54759,-3.38894 4.67635,-3.15022 z" /><path
       id="path24633"
       style="font-weight:bold;font-size:153.887px;line-height:98.4%;font-family:'Barlow Condensed';-inkscape-font-specification:'Barlow Condensed, ';text-align:end;letter-spacing:0px;word-spacing:0px;text-anchor:end;fill:#ffffff;stroke-width:0.822063px"
       d="m 255.24599,466.51029 c -8.90149,0.10557 -18.00232,2.63699 -24.9869,8.31745 -6.69579,5.30248 -11.26584,13.14186 -12.69246,21.55436 -1.30133,7.27218 -0.99002,14.88622 1.19871,21.9584 2.1788,6.53928 6.03076,12.44849 10.71469,17.46877 4.26442,4.3922 9.18196,8.07788 14.02592,11.79668 3.75513,2.79168 7.57545,5.49826 11.22987,8.42294 1.7722,1.43616 3.69551,3.07947 5.3903,4.74567 2.40739,2.03826 3.70699,5.23722 3.41797,8.37664 -0.0916,2.97747 -1.73441,6.29121 -4.82332,7.06313 -2.34511,0.64506 -5.00538,-0.36173 -6.27745,-2.45058 -1.98047,-2.86165 -1.61393,-6.49043 -1.60866,-9.7851 0.0719,-1.91179 -0.69752,-3.81658 -2.18771,-5.0394 -1.41416,-1.35311 -3.44594,-1.74281 -5.33895,-1.56723 -6.87816,0.0258 -13.76393,-0.0637 -20.6373,0.0593 -3.18815,0.36188 -5.69185,3.53804 -5.31637,6.72376 -0.062,5.38191 -0.0467,10.85413 1.47062,16.06709 2.18104,8.05005 7.32543,15.2828 14.35252,19.8098 7.73003,5.11412 17.22296,6.99038 26.38782,6.53572 8.66243,-0.34916 17.41035,-3.07995 24.12612,-8.693 6.44125,-5.25156 10.88493,-12.83357 12.40319,-20.99874 1.28232,-6.48762 1.29613,-13.2729 -0.22566,-19.72023 -1.94914,-7.59681 -6.53253,-14.34125 -12.33883,-19.53828 -6.52258,-5.99833 -13.66534,-11.25507 -20.72516,-16.59145 -3.59675,-2.83613 -7.34842,-5.59348 -10.24589,-9.17989 -2.61787,-3.33074 -2.94748,-8.14722 -1.29146,-11.97348 0.97833,-1.96301 3.09692,-3.36476 5.32912,-3.1439 1.99577,-7.9e-4 3.68603,1.33061 4.68289,2.97337 1.77689,2.86385 1.31403,6.37144 1.34604,9.57817 -0.14576,2.40441 0.60664,5.1627 2.87758,6.36788 2.36219,1.31633 5.15047,0.70751 7.72184,0.84177 5.91189,-0.0268 11.83278,0.0839 17.73887,-0.0767 3.30359,-0.41737 5.56681,-3.88675 5.14502,-7.0917 0.11946,-5.96246 -0.22979,-12.03054 -2.20466,-17.70762 -3.54263,-10.49874 -12.09602,-19.20657 -22.62031,-22.74544 -5.13375,-1.81574 -10.61325,-2.44672 -16.038,-2.35823 z" /><path
       id="path24635"
       style="font-weight:bold;font-size:153.887px;line-height:98.4%;font-family:'Barlow Condensed';-inkscape-font-specification:'Barlow Condensed, ';text-align:end;letter-spacing:0px;word-spacing:0px;text-anchor:end;fill:#ffffff;stroke-width:0.822063px"
       d="m 329.06162,478.70524 c -6.13665,-0.009 -12.27755,-0.0476 -18.41296,0.0211 -3.26928,0.28482 -5.89466,3.5211 -5.49018,6.78293 0,5.60846 0,11.2169 0,16.82535 -2.27591,0.0152 -4.83934,-0.3098 -6.73806,1.22868 -1.85547,1.34058 -2.72469,3.7144 -2.46292,5.95349 0.0406,4.65177 -0.0963,9.31591 0.0905,13.95949 0.33696,2.26963 2.02471,4.3427 4.3341,4.78109 1.57336,0.41653 3.25181,0.20069 4.77642,0.22233 0.0164,17.61527 -0.0456,35.23182 0.0455,52.84626 0.21364,5.80039 1.60709,11.92271 5.67126,16.28408 3.794,4.02118 9.31193,5.74678 14.60409,6.71539 6.2285,1.06002 12.57944,0.84236 18.86817,0.76792 3.33232,-0.31562 5.73754,-3.76268 5.32424,-7.00201 -0.0339,-6.02113 0.0744,-12.04882 -0.0653,-18.06567 -0.45222,-3.02078 -3.36359,-5.44741 -6.42627,-5.29362 -1.43744,-0.10759 -3.23711,0.36667 -4.32475,-0.83545 -1.03713,-1.9714 -0.67152,-4.30841 -0.76006,-6.45482 -0.0488,-12.98261 -0.009,-25.96536 -0.0193,-38.94804 2.89709,-0.0448 5.81803,0.14729 8.69907,-0.14553 3.11669,-0.6367 5.13681,-3.9654 4.73821,-7.03758 -0.0474,-4.61107 0.10377,-9.23488 -0.0914,-13.83773 -0.52397,-2.90012 -3.30093,-5.23735 -6.26942,-5.13779 -2.35827,-0.0223 -4.71713,0.0198 -7.07647,-0.002 -0.0149,-6.07385 0.0429,-12.15272 -0.0445,-18.2234 -0.39538,-3.02206 -3.25303,-5.51824 -6.3167,-5.4148 -0.88414,-0.0465 -1.76908,-0.0108 -2.65342,0.0108 z" /><path
       id="path24637"
       style="font-weight:bold;font-size:153.887px;line-height:98.4%;font-family:'Barlow Condensed';-inkscape-font-specification:'Barlow Condensed, ';text-align:end;letter-spacing:0px;word-spacing:0px;text-anchor:end;fill:#ffffff;stroke-width:0.822063px"
       d="m 371.10624,462.43361 c -5.62989,-0.0986 -11.35248,2.38089 -14.75516,6.93879 -4.13887,5.41198 -4.70817,13.04618 -2.2279,19.28352 2.10843,5.12964 6.78542,9.09418 12.21051,10.28066 6.3288,1.55215 13.64359,-0.0174 18.13652,-4.92063 3.52172,-3.71036 5.22346,-8.91548 4.94866,-13.98999 -0.15046,-4.88662 -2.18543,-9.7452 -5.85089,-13.03359 -3.32375,-3.13015 -7.94852,-4.59528 -12.46174,-4.55876 z m 8.20955,39.91266 c -6.44014,-0.0108 -12.8842,-0.0446 -19.32331,0.0187 -3.27468,0.2783 -5.90561,3.52022 -5.49956,6.78526 0.002,30.10112 -0.0157,60.20402 0.0257,90.30399 0.0859,2.56321 1.93301,5.04114 4.52836,5.48082 1.87609,0.42782 3.71508,0.11299 5.55196,0.21271 6.19148,-0.0415 12.39099,0.0902 18.57726,-0.0789 3.31183,-0.41063 5.58231,-3.89125 5.15412,-7.1017 -0.003,-30.01368 0.0188,-60.02959 -0.028,-90.04188 -0.29743,-3.09942 -3.21341,-5.697 -6.3354,-5.59032 -0.88339,-0.0465 -1.76754,-0.009 -2.65109,0.0108 z" /><path
       id="path24639"
       style="font-weight:bold;font-size:153.887px;line-height:98.4%;font-family:'Barlow Condensed';-inkscape-font-specification:'Barlow Condensed, ';text-align:end;letter-spacing:0px;word-spacing:0px;text-anchor:end;fill:#ffffff;stroke-width:0.822063px"
       d="m 429.81801,500.88832 c -8.73589,0.25036 -17.7131,2.58927 -24.60731,8.16113 -6.56302,5.16855 -10.76321,13.07126 -11.72246,21.33984 -0.62309,5.265 -0.22248,10.57621 -0.3381,15.86256 0.0356,9.37699 -0.0864,18.75676 0.0769,28.13192 0.38384,7.90071 3.24111,15.86 8.84234,21.56855 5.99449,6.22037 14.52269,9.44585 23.00089,10.2896 7.15627,0.76447 14.49525,0.44106 21.46054,-1.44675 6.58354,-1.81579 12.7176,-5.62132 16.75873,-11.19152 4.31643,-5.86407 6.35475,-13.1442 6.81087,-20.33895 -0.099,-3.25376 -3.19322,-5.94185 -6.41435,-5.76136 -7.11264,-0.34939 -14.22399,-0.8104 -21.33914,-1.05603 -3.01279,0.12129 -5.45272,2.75479 -5.85225,5.65898 -0.53325,1.91003 -1.72899,4.10214 -3.94096,4.2639 -2.00219,0.29535 -4.11103,-0.83663 -4.81654,-2.7665 -1.05882,-2.45551 -0.69321,-5.19522 -0.75087,-7.79497 12.72817,-0.0125 25.45929,0.0378 38.18558,-0.0397 3.38274,-0.25663 5.85838,-3.7368 5.44087,-7.01697 -0.0433,-8.57067 0.0959,-17.14488 -0.0873,-25.71324 -0.43195,-7.81521 -3.48562,-15.58144 -9.04391,-21.17264 -5.21263,-5.43725 -12.28702,-8.87959 -19.67312,-10.15401 -3.94861,-0.73025 -7.98139,-0.92352 -11.99036,-0.82376 z m 2.39875,30.20772 c 2.49549,0.11515 4.10169,2.64538 4.42303,4.91215 0.28432,1.93773 0.085,3.89958 0.11934,5.84824 -3.2537,0 -6.50741,0 -9.7611,0 0.0396,-2.49252 -0.27854,-5.07969 0.49412,-7.49064 0.68857,-2.00111 2.52897,-3.51212 4.7246,-3.26975 z" /><path
       id="path24641"
       style="font-weight:bold;font-size:153.887px;line-height:98.4%;font-family:'Barlow Condensed';-inkscape-font-specification:'Barlow Condensed, ';text-align:end;letter-spacing:0px;word-spacing:0px;text-anchor:end;fill:#ffffff;stroke-width:0.822063px"
       d="m 520.21186,501.23701 c -4.46235,0.0856 -8.89084,1.7567 -12.24644,4.70855 -1.17044,-2.36552 -3.81498,-3.92779 -6.46888,-3.61335 -7.12141,0.0153 -14.24721,-0.0427 -21.36586,0.0422 -3.2384,0.30595 -5.82126,3.51254 -5.43637,6.74316 0.008,30.05742 -0.028,60.11658 0.0282,90.17292 0.10029,2.52192 1.88943,4.98263 4.44743,5.43756 2.05285,0.47549 4.06903,0.12237 6.10935,0.23455 6.03266,-0.0396 12.07333,0.0893 18.10078,-0.0785 3.31087,-0.41065 5.58199,-3.89143 5.15176,-7.10171 0.0149,-16.993 -0.0418,-33.98748 0.0409,-50.97955 0.20487,-3.48263 1.45643,-7.19181 4.30729,-9.3788 3.14692,-1.49408 6.87642,-1.78946 10.19404,-0.67164 2.89207,0.83102 6.48415,-0.93635 6.96745,-4.05 0.99968,-5.4305 1.77715,-10.90071 2.69906,-16.34558 0.35943,-2.47567 0.8786,-4.93865 1.0892,-7.4298 0.005,-2.79841 -2.11923,-5.15142 -4.62827,-6.13373 -2.79638,-1.30858 -5.93915,-1.60276 -8.98954,-1.55627 z" /><path
       id="path24643"
       style="font-weight:bold;font-size:153.887px;line-height:98.4%;font-family:'Barlow Condensed';-inkscape-font-specification:'Barlow Condensed, ';text-align:end;letter-spacing:0px;word-spacing:0px;text-anchor:end;fill:#ffffff;stroke-width:0.822063px"
       d="m 580.89878,500.8813 c -4.84919,0.16887 -9.72068,1.57145 -13.70206,4.39261 -1.16217,-1.77744 -3.17728,-2.99388 -5.32943,-2.94023 -7.40207,0.0343 -14.81299,-0.073 -22.21395,0.058 -3.19133,0.36274 -5.69527,3.53985 -5.31585,6.72813 0.002,30.11123 -0.0157,60.22428 0.0257,90.33439 0.0859,2.56322 1.93299,5.04115 4.52834,5.48083 1.87611,0.42782 3.71509,0.11298 5.55197,0.21271 6.19148,-0.0415 12.39098,0.0902 18.57725,-0.0789 3.31139,-0.41004 5.58172,-3.89178 5.15176,-7.10171 0.0128,-20.05568 -0.0372,-40.11249 0.0362,-60.16743 0.0962,-2.24417 0.49381,-4.96197 2.60362,-6.21234 1.73011,-0.86075 4.31228,-0.76686 5.34042,1.10693 1.72723,2.88849 1.13526,6.38992 1.25097,9.59027 0.021,19.05629 -0.0203,38.11444 0.0338,57.16956 0.0859,2.56321 1.93299,5.04115 4.52834,5.48081 1.8761,0.42784 3.71509,0.113 5.55197,0.21273 6.19148,-0.0415 12.39098,0.0902 18.57725,-0.0789 3.31142,-0.41003 5.58167,-3.89178 5.1518,-7.1017 -0.0146,-21.2806 0.0412,-42.56225 -0.0406,-63.84218 -0.24342,-7.97188 -1.89878,-16.21671 -6.60269,-22.81893 -3.87579,-5.6339 -10.32002,-9.21854 -17.05389,-10.07851 -2.2008,-0.31634 -4.42963,-0.41048 -6.65094,-0.34635 z" /><path
       id="path24645"
       style="font-weight:bold;font-size:153.887px;line-height:98.4%;font-family:'Barlow Condensed';-inkscape-font-specification:'Barlow Condensed, ';text-align:end;letter-spacing:0px;word-spacing:0px;text-anchor:end;fill:#ffffff;stroke-width:0.822063px"
       d="m 652.17993,500.88832 c -8.7322,0.24996 -17.70277,2.59035 -24.59675,8.15499 -6.22296,4.88063 -10.47284,12.15745 -11.7052,19.96764 -0.91189,5.6213 -0.42094,11.33429 -0.54797,16.99987 0.0241,9.37537 -0.0702,18.7531 0.07,28.12693 0.33895,7.89152 3.20047,15.8334 8.76927,21.5478 6.11765,6.3777 14.82341,9.73776 23.50578,10.58347 7.66558,0.78122 15.56067,0.34625 22.92182,-2.04479 8.38326,-2.75979 15.82022,-8.80004 19.52414,-16.89619 2.35337,-4.98654 3.2698,-10.53761 3.22169,-16.02322 -0.0119,-12.40889 0.0459,-24.81852 -0.0331,-37.22731 -0.22512,-7.98739 -3.14588,-16.00434 -8.71502,-21.82034 -5.70954,-6.11682 -13.74489,-9.703 -21.96561,-10.81348 -3.45557,-0.51195 -6.95968,-0.64288 -10.44897,-0.55537 z m 2.45023,30.20772 c 2.68686,0.0509 4.60064,2.67415 4.77858,5.19168 0.24897,2.71468 0.008,5.44616 0.10142,8.16824 -0.0201,8.81161 0.0608,17.62584 -0.0591,26.43574 -0.2202,2.49573 -1.97771,5.14877 -4.67111,5.31 -2.03893,0.23803 -4.19523,-0.87099 -4.92612,-2.84272 -1.10702,-2.72054 -0.55249,-5.71929 -0.68599,-8.57342 0.0246,-9.49296 -0.0707,-18.98942 0.0658,-28.48016 0.19035,-2.26575 1.5546,-4.8153 4.01713,-5.1371 0.45565,-0.0872 0.91794,-0.0774 1.37944,-0.0723 z" /><path
       id="path24647"
       style="font-weight:bold;font-size:153.887px;line-height:98.4%;font-family:'Barlow Condensed';-inkscape-font-specification:'Barlow Condensed, ';text-align:end;letter-spacing:0px;word-spacing:0px;text-anchor:end;fill:#ffffff;stroke-width:0.822063px"
       d="m 744.54426,500.8813 c -4.84919,0.16887 -9.72068,1.57145 -13.70208,4.39261 -1.16215,-1.77744 -3.17727,-2.99388 -5.32942,-2.94023 -7.40207,0.0343 -14.81298,-0.073 -22.21396,0.058 -3.19131,0.36274 -5.69525,3.53985 -5.31584,6.72813 0.002,30.11123 -0.0157,60.22428 0.0257,90.33439 0.0859,2.56322 1.933,5.04115 4.52835,5.48083 1.87609,0.42782 3.71508,0.11298 5.55197,0.21271 6.19146,-0.0415 12.39097,0.0902 18.57726,-0.0789 3.31137,-0.41004 5.58171,-3.89178 5.15175,-7.10171 0.0128,-20.05568 -0.0371,-40.11249 0.0361,-60.16743 0.0963,-2.24417 0.4938,-4.96197 2.60363,-6.21234 1.7301,-0.86075 4.31227,-0.76686 5.34041,1.10693 1.72724,2.88849 1.13525,6.38992 1.25096,9.59027 0.021,19.05629 -0.0203,38.11444 0.0338,57.16956 0.0859,2.56321 1.933,5.04115 4.52834,5.48081 1.87611,0.42784 3.71509,0.113 5.55199,0.21273 6.19146,-0.0415 12.39097,0.0902 18.57723,-0.0789 3.31142,-0.41003 5.58169,-3.89178 5.1518,-7.1017 -0.0146,-21.2806 0.0412,-42.56225 -0.0406,-63.84218 -0.24342,-7.97188 -1.89878,-16.21671 -6.60268,-22.81893 -3.8758,-5.6339 -10.32003,-9.21854 -17.0539,-10.07851 -2.2008,-0.31634 -4.42963,-0.41048 -6.65093,-0.34635 z" /><path
       id="path24651"
       style="fill:#ffffff;fill-opacity:1;stroke-width:0.822063"
       d="m 170.96763,522.88183 c -2.81783,0.24001 -5.46513,1.34132 -8.14402,2.17174 -11.30327,3.93636 -22.07971,10.0726 -30.17242,19.00849 -6.2175,6.90996 -10.29987,15.61281 -12.00679,24.72776 -1.86444,9.47473 -1.61502,19.32358 0.3727,28.75555 0.87514,3.57075 3.33551,6.81955 6.8206,8.16591 2.91517,1.2316 6.26634,1.14094 9.20154,0.0247 11.85029,-3.51293 23.21062,-9.3678 32.06954,-18.09311 6.37782,-6.32895 10.9715,-14.40118 13.19357,-23.10483 2.71708,-10.31263 2.72605,-21.23934 0.68717,-31.67284 -0.63674,-3.43096 -2.58131,-6.73407 -5.72303,-8.41086 -1.90746,-1.06824 -4.11699,-1.60149 -6.29886,-1.57249 z" /><path
       d="m 153.18637,420.94353 q -10.67656,0 -18.77601,-4.24801 -8.09946,-4.24803 -12.51734,-11.82059 -4.41789,-7.75725 -4.41789,-17.73087 v -5.3562 q 0,-0.92349 0.55224,-1.47757 0.73631,-0.73879 1.6567,-0.73879 h 21.16904 q 0.92038,0 1.47262,0.73879 0.7363,0.55408 0.7363,1.47757 v 4.06332 q 0,5.72559 2.94527,9.23484 2.94527,3.50922 7.36315,3.50922 4.41788,0 7.36313,-3.32453 2.94528,-3.32455 2.94528,-8.68074 0,-5.54089 -3.68158,-9.41953 -3.68158,-4.06331 -14.35813,-11.82057 -9.20393,-6.64909 -14.91036,-11.82058 -5.70643,-5.17151 -9.75617,-12.74405 -4.04973,-7.57257 -4.04973,-17.54618 0,-15.69921 9.75617,-25.11873 9.75616,-9.41954 25.77099,-9.41954 16.19891,0 25.95508,9.78892 9.94024,9.78892 9.94024,25.67284 v 4.4327 q 0,0.92348 -0.73632,1.66228 -0.55224,0.55409 -1.47262,0.55409 h -21.16904 q -0.92039,0 -1.65671,-0.55409 -0.55223,-0.7388 -0.55223,-1.66228 v -4.9868 q 0,-5.7256 -2.94525,-9.05013 -2.76119,-3.50923 -7.36315,-3.50923 -4.41788,0 -7.17905,3.32454 -2.76119,3.13983 -2.76119,8.86543 0,5.54089 3.49749,9.78892 3.4975,4.24801 13.8059,11.82057 11.41286,8.49605 17.11929,13.85223 5.89053,5.17152 9.01986,11.63588 3.31341,6.2797 3.31341,15.14514 0,16.25329 -9.94024,25.85751 -9.94024,9.60422 -26.13915,9.60422 z"
       style="font-weight:bold;font-size:153.887px;line-height:98.4%;font-family:'Barlow Condensed';-inkscape-font-specification:'Barlow Condensed, ';text-align:end;letter-spacing:0px;word-spacing:0px;text-anchor:end;fill:#166a5d;stroke-width:0.822063px"
       id="path24039" /><path
       d="m 243.7527,340.60054 q 0,0.92347 -0.73631,1.66226 -0.55224,0.55409 -1.47263,0.55409 h -10.30839 q -0.9204,0 -0.9204,0.92349 v 43.95776 q 0,5.35621 2.02487,7.38788 2.02487,2.03166 6.07459,1.84696 h 1.28856 q 0.92037,0 1.47262,0.73878 0.73632,0.5541 0.73632,1.47759 v 18.10024 q 0,0.9235 -0.73632,1.66227 -0.55225,0.5541 -1.47262,0.5541 h -7.36315 q -13.43773,0 -20.24864,-4.43272 -6.81091,-4.61742 -6.81091,-17.36148 v -53.93138 q 0,-0.92349 -0.92038,-0.92349 h -6.07461 q -0.92039,0 -1.6567,-0.55409 -0.55223,-0.73879 -0.55223,-1.66226 v -13.85226 q 0,-0.92347 0.55223,-1.47755 0.73631,-0.7388 1.6567,-0.7388 h 6.07461 q 0.92038,0 0.92038,-0.92348 v -20.50132 q 0,-0.92348 0.55224,-1.47757 0.73631,-0.73877 1.6567,-0.73877 h 20.6168 q 0.92039,0 1.47263,0.73877 0.73631,0.55409 0.73631,1.47757 v 20.50132 q 0,0.92348 0.9204,0.92348 h 10.30839 q 0.92039,0 1.47263,0.7388 0.73631,0.55408 0.73631,1.47755 z"
       style="font-weight:bold;font-size:153.887px;line-height:98.4%;font-family:'Barlow Condensed';-inkscape-font-specification:'Barlow Condensed, ';text-align:end;letter-spacing:0px;word-spacing:0px;text-anchor:end;fill:#166a5d;stroke-width:0.822063px"
       id="path24041" /><path
       d="m 322.53805,377.90923 q 0,0.92348 -0.73632,1.66227 -0.55223,0.5541 -1.47263,0.5541 h -40.49728 q -0.92039,0 -0.92039,0.92348 v 6.83377 q 0,4.6174 2.39303,7.75724 2.57709,2.95515 6.44273,2.95515 3.4975,0 5.70644,-2.21636 2.20895,-2.40105 2.94526,-5.91028 0.55222,-1.84697 2.39302,-1.84697 l 21.16903,1.10818 q 0.92039,0 1.47262,0.73879 0.73631,0.55409 0.55225,1.66227 -1.28856,14.22163 -9.94024,21.6095 -8.46761,7.20316 -24.29838,7.20316 -16.38298,0 -25.58691,-8.12666 -9.20393,-8.31133 -9.20393,-22.90235 v -35.83114 q 0,-14.03694 9.20393,-22.53298 9.388,-8.49604 25.58691,-8.49604 16.19891,0 25.40285,8.49604 9.38801,8.49604 9.38801,22.53298 z m -34.79086,-32.50658 q -3.86564,0 -6.44273,2.95513 -2.39303,2.95515 -2.39303,7.57256 v 7.20317 q 0,0.92349 0.92039,0.92349 h 15.83076 q 0.92039,0 0.92039,-0.92349 v -7.20317 q 0,-4.61741 -2.5771,-7.57256 -2.39302,-2.95513 -6.25868,-2.95513 z m -10.30839,-32.3219 q -1.28856,0 -1.8408,-0.73879 -0.55222,-0.73878 0.1841,-1.84696 l 10.86062,-18.83905 q 0.73632,-1.47757 2.76119,-1.47757 h 17.1193 q 1.84078,0 1.84078,1.29286 0,0.5541 -0.55223,1.47758 l -14.17405,18.83905 q -1.10447,1.29288 -2.5771,1.29288 z"
       style="font-weight:bold;font-size:153.887px;line-height:98.4%;font-family:'Barlow Condensed';-inkscape-font-specification:'Barlow Condensed, ';text-align:end;letter-spacing:0px;word-spacing:0px;text-anchor:end;fill:#166a5d;stroke-width:0.822063px"
       id="path24043" /><path
       d="m 378.6818,323.05436 q 12.70142,0 19.14417,8.31134 6.62682,8.12665 6.62682,22.53297 v 36.01585 q 0,14.96041 -6.62682,23.08705 -6.62683,7.94196 -19.14417,7.94196 -4.04973,0 -8.46762,-1.47757 -4.41788,-1.66228 -8.09945,-5.72559 -0.36816,-0.5541 -0.73632,-0.3694 -0.36816,0.18469 -0.36816,0.73878 v 37.4934 q 0,0.92349 -0.73631,1.47758 -0.55223,0.73879 -1.47263,0.73879 h -21.53719 q -0.9204,0 -1.65671,-0.73879 -0.55223,-0.55409 -0.55223,-1.47758 V 326.74828 q 0,-0.92347 0.55223,-1.47755 0.73631,-0.7388 1.65671,-0.7388 h 21.53719 q 0.9204,0 1.47263,0.7388 0.73631,0.55408 0.73631,1.47755 v 2.95516 q 0,0.36939 0.36816,0.36939 0.73632,0 1.47264,-0.92348 6.25867,-6.09499 15.83075,-6.09499 z m -0.18408,32.87598 q 0,-4.80211 -2.39302,-7.75724 -2.39302,-2.95516 -6.44275,-2.95516 -3.86565,0 -6.25868,2.95516 -2.39302,2.95513 -2.39302,7.75724 v 31.95251 q 0,4.80211 2.39302,7.75724 2.39303,2.95515 6.25868,2.95515 4.04973,0 6.44275,-2.95515 2.39302,-2.95513 2.39302,-7.75724 z"
       style="font-weight:bold;font-size:153.887px;line-height:98.4%;font-family:'Barlow Condensed';-inkscape-font-specification:'Barlow Condensed, ';text-align:end;letter-spacing:0px;word-spacing:0px;text-anchor:end;fill:#166a5d;stroke-width:0.822063px"
       id="path24045" /><path
       d="m 460.96489,323.05436 q 12.51735,0 18.77602,8.31134 6.25866,8.31135 6.25866,23.27177 v 62.61212 q 0,0.9235 -0.7363,1.66227 -0.55225,0.5541 -1.47264,0.5541 h -21.53719 q -0.9204,0 -1.6567,-0.5541 -0.55224,-0.73877 -0.55224,-1.66227 v -60.58045 q 0,-5.35621 -2.20895,-8.31136 -2.02486,-2.95513 -6.07459,-2.95513 -4.23381,0 -6.62682,3.13984 -2.20895,2.95515 -2.20895,8.49604 v 60.21106 q 0,0.9235 -0.73632,1.66227 -0.55222,0.5541 -1.47263,0.5541 h -21.53719 q -0.92038,0 -1.65669,-0.5541 -0.55225,-0.73877 -0.55225,-1.66227 V 292.39472 q 0,-0.92348 0.55225,-1.47755 0.73631,-0.73879 1.65669,-0.73879 h 21.53719 q 0.92041,0 1.47263,0.73879 0.73632,0.55407 0.73632,1.47755 v 37.86281 q 0,0.55409 0.36816,0.55409 0.55223,0 1.28855,-0.73879 5.89052,-7.01847 16.38299,-7.01847 z"
       style="font-weight:bold;font-size:153.887px;line-height:98.4%;font-family:'Barlow Condensed';-inkscape-font-specification:'Barlow Condensed, ';text-align:end;letter-spacing:0px;word-spacing:0px;text-anchor:end;fill:#166a5d;stroke-width:0.822063px"
       id="path24047" /><path
       d="m 533.49157,323.05436 q 15.64668,0 25.40285,8.49604 9.75615,8.49604 9.75615,22.34827 v 63.35092 q 0,0.9235 -0.73631,1.66227 -0.55224,0.5541 -1.47261,0.5541 h -21.53721 q -0.92039,0 -1.65671,-0.5541 -0.55224,-0.73877 -0.55224,-1.66227 v -4.06332 q 0,-0.55408 -0.36815,-0.73878 -0.36814,-0.1847 -0.73632,0.36938 -6.07459,7.75728 -18.776,8.12666 -10.67656,0 -18.59193,-5.91029 -7.7313,-5.91029 -7.7313,-22.53299 0,-17.17677 9.388,-23.64114 9.57208,-6.4644 27.42771,-6.4644 h 8.46761 q 0.92038,0 0.92038,-0.92347 v -4.61742 q 0,-4.98679 -2.76117,-8.12665 -2.57709,-3.32452 -6.62682,-3.32452 -3.12933,0 -5.33829,2.03166 -2.02486,1.84696 -2.57709,5.35619 -0.18409,2.21636 -2.39302,2.21636 l -22.08942,-0.18469 q -2.20895,0 -2.20895,-2.21637 0.9204,-13.48285 10.49247,-21.42479 9.57208,-8.12665 24.29837,-8.12665 z m -1.84079,77.75725 q 4.2338,0 7.54722,-2.77046 3.49749,-2.95513 3.49749,-7.75724 v -8.68075 q 0,-0.92346 -0.92038,-0.92346 h -7.54722 q -4.97013,0 -8.09946,2.95513 -2.94526,2.77044 -2.94526,7.75726 0,4.61741 2.20895,7.01846 2.39302,2.40106 6.25866,2.40106 z"
       style="font-weight:bold;font-size:153.887px;line-height:98.4%;font-family:'Barlow Condensed';-inkscape-font-specification:'Barlow Condensed, ';text-align:end;letter-spacing:0px;word-spacing:0px;text-anchor:end;fill:#166a5d;stroke-width:0.822063px"
       id="path24049" /><path
       d="m 625.34664,323.05436 q 12.51733,0 18.776,8.31134 6.25868,8.31135 6.25868,23.27177 v 62.61212 q 0,0.9235 -0.73632,1.66227 -0.55224,0.5541 -1.47262,0.5541 h -21.53719 q -0.9204,0 -1.65672,-0.5541 -0.55223,-0.73877 -0.55223,-1.66227 v -60.58045 q 0,-5.35621 -2.20894,-8.31136 -2.02487,-2.95513 -6.07461,-2.95513 -4.23379,0 -6.62681,3.13984 -2.20895,2.95515 -2.20895,8.49604 v 60.21106 q 0,0.9235 -0.73632,1.66227 -0.55223,0.5541 -1.47262,0.5541 H 583.5608 q -0.92039,0 -1.65671,-0.5541 -0.55223,-0.73877 -0.55223,-1.66227 v -90.50131 q 0,-0.92347 0.55223,-1.47755 0.73632,-0.7388 1.65671,-0.7388 h 21.53719 q 0.92039,0 1.47262,0.7388 0.73632,0.55408 0.73632,1.47755 v 3.50925 q 0,0.55409 0.36817,0.55409 0.55222,0 1.28854,-0.73879 5.89051,-7.01847 16.383,-7.01847 z"
       style="font-weight:bold;font-size:153.887px;line-height:98.4%;font-family:'Barlow Condensed';-inkscape-font-specification:'Barlow Condensed, ';text-align:end;letter-spacing:0px;word-spacing:0px;text-anchor:end;fill:#166a5d;stroke-width:0.822063px"
       id="path24051" /><path
       d="m 676.70428,313.81953 q -6.25867,0 -10.49247,-4.06331 -4.04974,-4.24803 -4.04974,-10.52772 0,-6.46437 4.04974,-10.52771 4.04972,-4.06332 10.49247,-4.06332 6.44274,0 10.30839,4.06332 4.04973,4.06334 4.04973,10.52771 0,6.27969 -4.04973,10.52772 -4.04972,4.06331 -10.30839,4.06331 z m -10.49247,105.64643 q -0.9204,0 -1.65672,-0.5541 -0.55224,-0.73877 -0.55224,-1.66227 v -90.50131 q 0,-0.92347 0.55224,-1.47755 0.73632,-0.7388 1.65672,-0.7388 h 21.53717 q 0.9204,0 1.47264,0.7388 0.73632,0.55408 0.73632,1.47755 v 90.50131 q 0,0.9235 -0.73632,1.66227 -0.55224,0.5541 -1.47264,0.5541 z"
       style="font-weight:bold;font-size:153.887px;line-height:98.4%;font-family:'Barlow Condensed';-inkscape-font-specification:'Barlow Condensed, ';text-align:end;letter-spacing:0px;word-spacing:0px;text-anchor:end;fill:#166a5d;stroke-width:0.822063px"
       id="path24053" /><path
       d="m 772.24102,377.90923 q 0,0.92348 -0.73631,1.66227 -0.55224,0.5541 -1.47264,0.5541 h -40.49728 q -0.92038,0 -0.92038,0.92348 v 6.83377 q 0,4.6174 2.39302,7.75724 2.5771,2.95515 6.44274,2.95515 3.4975,0 5.70643,-2.21636 2.20896,-2.40105 2.94526,-5.91028 0.55225,-1.84697 2.39302,-1.84697 l 21.16905,1.10818 q 0.92038,0 1.47262,0.73879 0.73632,0.55409 0.55224,1.66227 -1.28854,14.22163 -9.94024,21.6095 -8.46761,7.20316 -24.29838,7.20316 -16.38299,0 -25.58691,-8.12666 -9.20393,-8.31133 -9.20393,-22.90235 v -35.83114 q 0,-14.03694 9.20393,-22.53298 9.38801,-8.49604 25.58691,-8.49604 16.19893,0 25.40284,8.49604 9.38801,8.49604 9.38801,22.53298 z m -34.79085,-32.50658 q -3.86564,0 -6.44274,2.95513 -2.39302,2.95515 -2.39302,7.57256 v 7.20317 q 0,0.92349 0.92038,0.92349 h 15.83077 q 0.92038,0 0.92038,-0.92349 v -7.20317 q 0,-4.61741 -2.5771,-7.57256 -2.39301,-2.95513 -6.25867,-2.95513 z"
       style="font-weight:bold;font-size:153.887px;line-height:98.4%;font-family:'Barlow Condensed';-inkscape-font-specification:'Barlow Condensed, ';text-align:end;letter-spacing:0px;word-spacing:0px;text-anchor:end;fill:#166a5d;stroke-width:0.822063px"
       id="path24055" /><path
       d="m 257.00652,602.68493 q -10.67656,0 -18.77602,-4.24802 -8.09945,-4.24803 -12.51734,-11.82057 -4.41787,-7.75726 -4.41787,-17.73086 v -5.35622 q 0,-0.92348 0.55222,-1.47756 0.73632,-0.73879 1.6567,-0.73879 h 21.16905 q 0.92038,0 1.47262,0.73879 0.73632,0.55408 0.73632,1.47756 v 4.06333 q 0,5.72558 2.94526,9.23484 2.94524,3.50922 7.36313,3.50922 4.4179,0 7.36315,-3.32454 2.94525,-3.32453 2.94525,-8.68073 0,-5.5409 -3.68157,-9.41953 -3.68157,-4.06332 -14.35813,-11.82058 -9.20392,-6.64907 -14.91036,-11.82059 -5.70644,-5.17149 -9.75615,-12.74405 -4.04973,-7.57257 -4.04973,-17.54616 0,-15.69922 9.75616,-25.11873 9.75616,-9.41954 25.771,-9.41954 16.1989,0 25.95507,9.78892 9.94024,9.78891 9.94024,25.67283 v 4.43271 q 0,0.92347 -0.73632,1.66227 -0.55223,0.55408 -1.47262,0.55408 h -21.16904 q -0.92039,0 -1.6567,-0.55408 -0.55223,-0.7388 -0.55223,-1.66227 v -4.98681 q 0,-5.72559 -2.94526,-9.05012 -2.76117,-3.50923 -7.36314,-3.50923 -4.4179,0 -7.17907,3.32453 -2.76118,3.13984 -2.76118,8.86544 0,5.54089 3.4975,9.78892 3.49748,4.24801 13.80589,11.82057 11.41287,8.49605 17.11931,13.85224 5.8905,5.17151 9.01984,11.63587 3.31342,6.2797 3.31342,15.14513 0,16.25329 -9.94024,25.85751 -9.94026,9.60422 -26.13916,9.60422 z"
       style="font-weight:bold;font-size:153.887px;line-height:98.4%;font-family:'Barlow Condensed';-inkscape-font-specification:'Barlow Condensed, ';text-align:end;letter-spacing:0px;word-spacing:0px;text-anchor:end;fill:#166a5d;stroke-width:0.822063px"
       id="path24057" /><path
       d="m 347.57286,522.34194 q 0,0.92348 -0.73632,1.66227 -0.55223,0.55409 -1.47261,0.55409 h -10.30841 q -0.9204,0 -0.9204,0.92348 v 43.95777 q 0,5.35621 2.02488,7.38788 2.02486,2.03165 6.07459,1.84696 h 1.28854 q 0.92039,0 1.47262,0.73878 0.73632,0.55409 0.73632,1.47758 V 598.991 q 0,0.92348 -0.73632,1.66227 -0.55223,0.5541 -1.47262,0.5541 H 336.16 q -13.43774,0 -20.24865,-4.43273 -6.8109,-4.61741 -6.8109,-17.36147 v -53.93139 q 0,-0.92348 -0.9204,-0.92348 h -6.07459 q -0.92039,0 -1.65671,-0.55409 -0.55223,-0.73879 -0.55223,-1.66227 v -13.85225 q 0,-0.92347 0.55223,-1.47757 0.73632,-0.73878 1.65671,-0.73878 h 6.07459 q 0.9204,0 0.9204,-0.92349 v -20.50133 q 0,-0.92347 0.55222,-1.47755 0.73632,-0.73879 1.65671,-0.73879 h 20.61681 q 0.92039,0 1.47261,0.73879 0.73632,0.55408 0.73632,1.47755 v 20.50133 q 0,0.92349 0.9204,0.92349 h 10.30841 q 0.92038,0 1.47261,0.73878 0.73632,0.5541 0.73632,1.47757 z"
       style="font-weight:bold;font-size:153.887px;line-height:98.4%;font-family:'Barlow Condensed';-inkscape-font-specification:'Barlow Condensed, ';text-align:end;letter-spacing:0px;word-spacing:0px;text-anchor:end;fill:#166a5d;stroke-width:0.822063px"
       id="path24059" /><path
       d="m 371.13463,495.56094 q -6.25868,0 -10.49248,-4.06332 -4.04973,-4.24803 -4.04973,-10.52771 0,-6.46438 4.04973,-10.52771 4.04973,-4.06331 10.49248,-4.06331 6.44274,0 10.3084,4.06331 4.04971,4.06333 4.04971,10.52771 0,6.27968 -4.04971,10.52771 -4.04974,4.06332 -10.3084,4.06332 z m -10.49248,105.64643 q -0.92039,0 -1.65671,-0.5541 -0.55224,-0.73879 -0.55224,-1.66227 v -90.50131 q 0,-0.92347 0.55224,-1.47757 0.73632,-0.73878 1.65671,-0.73878 h 21.53719 q 0.92039,0 1.47263,0.73878 0.73631,0.5541 0.73631,1.47757 V 598.991 q 0,0.92348 -0.73631,1.66227 -0.55224,0.5541 -1.47263,0.5541 z"
       style="font-weight:bold;font-size:153.887px;line-height:98.4%;font-family:'Barlow Condensed';-inkscape-font-specification:'Barlow Condensed, ';text-align:end;letter-spacing:0px;word-spacing:0px;text-anchor:end;fill:#166a5d;stroke-width:0.822063px"
       id="path24061" /><path
       d="m 466.67138,559.65064 q 0,0.92347 -0.73632,1.66227 -0.55223,0.55408 -1.47264,0.55408 h -40.49728 q -0.92039,0 -0.92039,0.92349 v 6.83377 q 0,4.61741 2.39302,7.75725 2.57711,2.95515 6.44275,2.95515 3.4975,0 5.70643,-2.21636 2.20896,-2.40105 2.94527,-5.9103 0.55223,-1.84696 2.39302,-1.84696 l 21.16903,1.10818 q 0.92039,0 1.47263,0.73878 0.73631,0.5541 0.55223,1.66229 -1.28854,14.22162 -9.94024,21.60949 -8.46761,7.20316 -24.29837,7.20316 -16.383,0 -25.58692,-8.12665 -9.20393,-8.31135 -9.20393,-22.90236 v -35.83113 q 0,-14.03695 9.20393,-22.53299 9.38802,-8.49603 25.58692,-8.49603 16.19892,0 25.40284,8.49603 9.38802,8.49604 9.38802,22.53299 z m -34.79086,-32.50659 q -3.86564,0 -6.44275,2.95514 -2.39302,2.95515 -2.39302,7.57255 v 7.20319 q 0,0.92347 0.92039,0.92347 h 15.83077 q 0.92038,0 0.92038,-0.92347 v -7.20319 q 0,-4.6174 -2.5771,-7.57255 -2.39302,-2.95514 -6.25867,-2.95514 z"
       style="font-weight:bold;font-size:153.887px;line-height:98.4%;font-family:'Barlow Condensed';-inkscape-font-specification:'Barlow Condensed, ';text-align:end;letter-spacing:0px;word-spacing:0px;text-anchor:end;fill:#166a5d;stroke-width:0.822063px"
       id="path24063" /><path
       d="m 520.97434,505.16515 q 4.97012,0 7.7313,1.84697 1.47263,0.92349 1.10448,2.77045 l -3.4975,21.60949 q -0.18408,2.03166 -2.57711,1.47757 -2.02485,-0.73877 -4.97011,-0.73877 -2.76118,0 -4.78605,0.73877 -4.2338,0.7388 -6.81092,5.17152 -2.57708,4.24801 -2.57708,9.97361 v 50.79155 q 0,0.92347 -0.73631,1.66226 -0.55224,0.55409 -1.47265,0.55409 H 480.8452 q -0.92037,0 -1.65669,-0.55409 -0.55225,-0.73879 -0.55225,-1.66226 v -90.31662 q 0,-0.92347 0.55225,-1.47757 0.73632,-0.73878 1.65669,-0.73878 h 21.53719 q 0.92041,0 1.47265,0.73878 0.73631,0.5541 0.73631,1.47757 v 7.20317 q 0,0.73879 0.18406,0.92349 0.36818,0 0.73632,-0.5541 4.97014,-10.8971 15.46261,-10.8971 z"
       style="font-weight:bold;font-size:153.887px;line-height:98.4%;font-family:'Barlow Condensed';-inkscape-font-specification:'Barlow Condensed, ';text-align:end;letter-spacing:0px;word-spacing:0px;text-anchor:end;fill:#166a5d;stroke-width:0.822063px"
       id="path24065" /><path
       d="m 582.2724,504.79577 q 12.51734,0 18.776,8.31133 6.25867,8.31136 6.25867,23.27178 V 598.991 q 0,0.92348 -0.73632,1.66227 -0.55223,0.5541 -1.47262,0.5541 h -21.53719 q -0.92039,0 -1.6567,-0.5541 -0.55224,-0.73879 -0.55224,-1.66227 v -60.58047 q 0,-5.35619 -2.20894,-8.31134 -2.02486,-2.95514 -6.0746,-2.95514 -4.23379,0 -6.62681,3.13985 -2.20894,2.95515 -2.20894,8.49604 V 598.991 q 0,0.92348 -0.73632,1.66227 -0.55225,0.5541 -1.47264,0.5541 h -21.53718 q -0.92039,0 -1.65671,-0.5541 -0.55224,-0.73879 -0.55224,-1.66227 v -90.50131 q 0,-0.92347 0.55224,-1.47757 0.73632,-0.73878 1.65671,-0.73878 h 21.53718 q 0.92039,0 1.47264,0.73878 0.73632,0.5541 0.73632,1.47757 v 3.50924 q 0,0.55408 0.36814,0.55408 0.55223,0 1.28855,-0.73877 5.89051,-7.01847 16.383,-7.01847 z"
       style="font-weight:bold;font-size:153.887px;line-height:98.4%;font-family:'Barlow Condensed';-inkscape-font-specification:'Barlow Condensed, ';text-align:end;letter-spacing:0px;word-spacing:0px;text-anchor:end;fill:#166a5d;stroke-width:0.822063px"
       id="path24067" /><path
       d="m 654.24683,602.68493 q -16.38298,0 -25.77099,-8.31134 -9.20394,-8.31134 -9.20394,-22.71767 v -35.83113 q 0,-14.03695 9.38802,-22.53299 9.38801,-8.49603 25.58691,-8.49603 16.38299,0 25.771,8.49603 9.38801,8.49604 9.38801,22.53299 v 35.83113 q 0,14.40633 -9.38801,22.71767 -9.20392,8.31134 -25.771,8.31134 z m 0,-22.53299 q 4.04974,0 6.62683,-2.95513 2.57709,-2.95515 2.57709,-7.57256 v -31.95251 q 0,-4.6174 -2.57709,-7.57255 -2.57709,-2.95514 -6.62683,-2.95514 -4.04971,0 -6.62683,2.95514 -2.39302,2.95515 -2.39302,7.57255 v 31.95251 q 0,4.61741 2.39302,7.57256 2.57712,2.95513 6.62683,2.95513 z"
       style="font-weight:bold;font-size:153.887px;line-height:98.4%;font-family:'Barlow Condensed';-inkscape-font-specification:'Barlow Condensed, ';text-align:end;letter-spacing:0px;word-spacing:0px;text-anchor:end;fill:#166a5d;stroke-width:0.822063px"
       id="path24069" /><path
       d="m 745.91787,504.79577 q 12.51733,0 18.77601,8.31133 6.25866,8.31136 6.25866,23.27178 V 598.991 q 0,0.92348 -0.73631,1.66227 -0.55223,0.5541 -1.47263,0.5541 h -21.53719 q -0.9204,0 -1.65671,-0.5541 -0.55223,-0.73879 -0.55223,-1.66227 v -60.58047 q 0,-5.35619 -2.20894,-8.31134 -2.02488,-2.95514 -6.07459,-2.95514 -4.23381,0 -6.62683,3.13985 -2.20895,2.95515 -2.20895,8.49604 V 598.991 q 0,0.92348 -0.73632,1.66227 -0.55223,0.5541 -1.47262,0.5541 h -21.53719 q -0.92039,0 -1.6567,-0.5541 -0.55224,-0.73879 -0.55224,-1.66227 v -90.50131 q 0,-0.92347 0.55224,-1.47757 0.73631,-0.73878 1.6567,-0.73878 h 21.53719 q 0.92039,0 1.47262,0.73878 0.73632,0.5541 0.73632,1.47757 v 3.50924 q 0,0.55408 0.36816,0.55408 0.55224,0 1.28856,-0.73877 5.8905,-7.01847 16.38299,-7.01847 z"
       style="font-weight:bold;font-size:153.887px;line-height:98.4%;font-family:'Barlow Condensed';-inkscape-font-specification:'Barlow Condensed, ';text-align:end;letter-spacing:0px;word-spacing:0px;text-anchor:end;fill:#166a5d;stroke-width:0.822063px"
       id="path24071" /><path
       d="m 124.9985,597.16313 c 0.57196,1.79906 1.65835,3.43449 3.39301,4.43935 1.73419,1.00496 3.81953,1.33231 5.65929,0.88876 1.0279,-0.32669 26.44161,-6.28593 38.69283,-25.60483 12.25086,-19.31871 6.40247,-43.49435 6.07554,-44.52222 -0.57189,-1.79887 -1.65786,-3.43482 -3.39237,-4.43924 -1.18549,-0.61346 -2.45853,-1.0576 -3.73796,-1.07554 -0.5958,-0.0934 -1.27872,-0.0202 -1.92117,0.1884 -1.02833,0.32708 -26.44163,6.28568 -38.69298,25.60451 -12.25082,19.31883 -6.40292,43.49435 -6.07599,44.52239 z"
       fill="#4bb166"
       id="path24037"
       sodipodi:nodetypes="sscssccsss"
       style="fill:#166a5d;fill-opacity:1;stroke-width:0.822063" /></g></g></svg>
