<?xml version="1.0" encoding="UTF-8" standalone="no"?>
<!-- Generator: Adobe Illustrator 24.1.0, SVG Export Plug-In . SVG Version: 6.00 Build 0)  -->

<svg
   version="1.1"
   id="Calque_1"
   x="0px"
   y="0px"
   viewBox="0 0 300 300"
   style="enable-background:new 0 0 300 300;"
   xml:space="preserve"
   sodipodi:docname="favicon.svg"
   inkscape:version="1.1.2 (0a00cf5339, 2022-02-04)"
   inkscape:export-filename="./favicon-128.png"
   inkscape:export-xdpi="40.959999"
   inkscape:export-ydpi="40.959999"
   xmlns:inkscape="http://www.inkscape.org/namespaces/inkscape"
   xmlns:sodipodi="http://sodipodi.sourceforge.net/DTD/sodipodi-0.dtd"
   xmlns="http://www.w3.org/2000/svg"
   xmlns:svg="http://www.w3.org/2000/svg"
   xmlns:rdf="http://www.w3.org/1999/02/22-rdf-syntax-ns#"
   xmlns:cc="http://creativecommons.org/ns#"
   xmlns:dc="http://purl.org/dc/elements/1.1/"><metadata
   id="metadata17"><rdf:RDF><cc:Work
       rdf:about=""><dc:format>image/svg+xml</dc:format><dc:type
         rdf:resource="http://purl.org/dc/dcmitype/StillImage" /></cc:Work></rdf:RDF></metadata><defs
   id="defs15" /><sodipodi:namedview
   pagecolor="#ffffff"
   bordercolor="#666666"
   borderopacity="1"
   objecttolerance="10"
   gridtolerance="10"
   guidetolerance="10"
   inkscape:pageopacity="0"
   inkscape:pageshadow="2"
   inkscape:window-width="1855"
   inkscape:window-height="1056"
   id="namedview13"
   showgrid="false"
   inkscape:zoom="1.1125147"
   inkscape:cx="102.47056"
   inkscape:cy="211.23317"
   inkscape:window-x="65"
   inkscape:window-y="24"
   inkscape:window-maximized="1"
   inkscape:current-layer="g1201"
   showguides="false"
   inkscape:guide-bbox="true"
   inkscape:pagecheckerboard="0" />
<style
   type="text/css"
   id="style2">
	.st0{fill:#5AB88F;}
	.st1{fill:#E73452;}
</style>

<flowRoot
   xml:space="preserve"
   id="flowRoot848"
   style="font-style:normal;font-variant:normal;font-weight:normal;font-stretch:normal;font-size:42.6667px;line-height:125%;font-family:'Helvetica Now Display';-inkscape-font-specification:'Helvetica Now Display';letter-spacing:0px;word-spacing:0px;fill:#000000;fill-opacity:1;stroke:none;stroke-width:1px;stroke-linecap:butt;stroke-linejoin:miter;stroke-opacity:1"><flowRegion
     id="flowRegion850"><rect
       id="rect852"
       width="251.69492"
       height="258.05084"
       x="-298.72882"
       y="-209.74576" /></flowRegion><flowPara
     id="flowPara854" /></flowRoot><flowRoot
   xml:space="preserve"
   id="flowRoot856"
   style="font-style:normal;font-variant:normal;font-weight:normal;font-stretch:normal;font-size:42.6667px;line-height:125%;font-family:'Helvetica Now Display';-inkscape-font-specification:'Helvetica Now Display';letter-spacing:0px;word-spacing:0px;fill:#000000;fill-opacity:1;stroke:none;stroke-width:1px;stroke-linecap:butt;stroke-linejoin:miter;stroke-opacity:1"><flowRegion
     id="flowRegion858"><rect
       id="rect860"
       width="1188.5593"
       height="122.0339"
       x="-582.20337"
       y="-291.10168" /></flowRegion><flowPara
     id="flowPara862" /></flowRoot><style
   type="text/css"
   id="style2-3">
	.st0{fill:#5AB88F;}
	.st1{fill:#E73452;}
</style><g
   id="g950"
   transform="translate(-1078.0332,-478.23991)"><flowRoot
     xml:space="preserve"
     id="flowRoot848-5"
     style="font-style:normal;font-variant:normal;font-weight:normal;font-stretch:normal;font-size:42.6667px;line-height:125%;font-family:'Helvetica Now Display';-inkscape-font-specification:'Helvetica Now Display';letter-spacing:0px;word-spacing:0px;fill:#000000;fill-opacity:1;stroke:none;stroke-width:1px;stroke-linecap:butt;stroke-linejoin:miter;stroke-opacity:1"><flowRegion
       id="flowRegion850-6"><rect
         id="rect852-2"
         width="251.69492"
         height="258.05084"
         x="-298.72882"
         y="-209.74576" /></flowRegion><flowPara
       id="flowPara854-9" /></flowRoot><flowRoot
     xml:space="preserve"
     id="flowRoot856-1"
     style="font-style:normal;font-variant:normal;font-weight:normal;font-stretch:normal;font-size:42.6667px;line-height:125%;font-family:'Helvetica Now Display';-inkscape-font-specification:'Helvetica Now Display';letter-spacing:0px;word-spacing:0px;fill:#000000;fill-opacity:1;stroke:none;stroke-width:1px;stroke-linecap:butt;stroke-linejoin:miter;stroke-opacity:1"><flowRegion
       id="flowRegion858-2"><rect
         id="rect860-7"
         width="1188.5593"
         height="122.0339"
         x="-582.20337"
         y="-291.10168" /></flowRegion><flowPara
       id="flowPara862-0" /></flowRoot><g
     id="g937"
     transform="matrix(1.2164546,0,0,1.2164546,179.99433,708.80287)"
     style="stroke-width:0.822061"><g
       id="g1201"
       transform="translate(709.15862,-583.65353)"
       style="stroke-width:0.822061"><path
         id="path24649"
         style="fill:#ffffff;fill-opacity:1;stroke-width:0.82206"
         d="m 62.405946,431.76085 c -6.916233,0.12611 -14.018386,3.28083 -17.848394,9.21089 -2.458996,3.53608 -3.557974,7.77357 -4.220352,11.97302 -3.089124,17.01869 -3.397924,34.57282 -0.675639,51.66166 2.924474,17.93366 9.72095,35.43823 20.984195,49.80742 13.255188,17.06976 31.513328,29.62852 50.980264,38.65151 9.8576,4.54619 20.10667,8.30102 30.6455,10.91699 8.64646,1.63059 18.18752,-2.68717 22.28522,-10.55783 2.57609,-4.70769 3.1076,-10.15212 3.98917,-15.35596 2.94308,-20.46581 2.18559,-41.63803 -3.58912,-61.5582 -4.38331,-14.99893 -11.9639,-29.12167 -22.51705,-40.68832 -14.73428,-16.33338 -33.95579,-28.02908 -54.197078,-36.27801 -7.507547,-3.01423 -15.197391,-5.62483 -23.05715,-7.54723 -0.913825,-0.17718 -1.848713,-0.25589 -2.779566,-0.23594 z" /><path
         d="m 161.78316,587.62445 c -1.22782,3.86197 -3.55992,7.37266 -7.28367,9.52979 -3.72271,2.1573 -8.19925,2.86007 -12.14862,1.90787 -2.20651,-0.70129 -56.761216,-13.49377 -83.060505,-54.965 -26.298476,-41.47076 -13.743979,-93.36772 -13.042183,-95.57424 1.22767,-3.86155 3.558895,-7.37337 7.282329,-9.52954 2.544843,-1.3169 5.277642,-2.2703 8.024178,-2.30884 1.278946,-0.20049 2.744953,-0.0432 4.124079,0.40444 2.207448,0.70215 56.761302,13.49326 83.060842,54.96431 26.29837,41.47101 13.74493,93.36773 13.04311,95.57457 z"
         fill="#4bb166"
         id="path23231-9"
         sodipodi:nodetypes="sscssccsss"
         style="fill:#166a5d;fill-opacity:1;stroke-width:0.82206" /><path
         id="path24651"
         style="fill:#ffffff;fill-opacity:1;stroke-width:0.822063"
         d="m 193.46805,501.43079 c -3.46202,0.29489 -6.71453,1.64797 -10.00584,2.66823 -13.88736,4.83626 -27.12742,12.37533 -37.07023,23.35407 -7.63889,8.48967 -12.65456,19.1821 -14.75169,30.38085 -2.29067,11.64077 -1.98423,23.7412 0.4579,35.32943 1.0752,4.38707 4.09806,8.37859 8.37988,10.03274 3.58161,1.51317 7.6989,1.40179 11.30513,0.0304 14.55942,-4.31603 28.51687,-11.50939 39.40103,-22.22943 7.83588,-7.77582 13.47974,-17.69346 16.2098,-28.38688 3.33824,-12.67023 3.34926,-26.09493 0.84426,-38.91366 -0.7823,-4.21531 -3.17143,-8.27357 -7.03138,-10.33369 -2.34351,-1.31245 -5.05817,-1.96761 -7.73886,-1.93198 z" /><path
         d="m 136.98979,592.69375 c 0.70272,2.21035 2.03747,4.21965 4.1687,5.45423 2.13064,1.23473 4.69272,1.63691 6.95308,1.09196 1.26289,-0.40139 32.48649,-7.72299 47.5385,-31.45843 15.05157,-23.73521 7.86615,-53.43771 7.46449,-54.70057 -0.70264,-2.21011 -2.03686,-4.22007 -4.16793,-5.45411 -1.45649,-0.7537 -3.02057,-1.29937 -4.59249,-1.32142 -0.73201,-0.11475 -1.57107,-0.0249 -2.36037,0.23146 -1.26342,0.40186 -32.48653,7.72269 -47.53869,31.45803 -15.05152,23.73537 -7.86671,53.43772 -7.46505,54.70079 z"
         fill="#4bb166"
         id="path24037"
         sodipodi:nodetypes="sscssccsss"
         style="fill:#166a5d;fill-opacity:1;stroke-width:0.822063" /><path
         id="path24633"
         style="font-weight:bold;font-size:153.887px;line-height:98.4%;font-family:'Barlow Condensed';-inkscape-font-specification:'Barlow Condensed, ';text-align:end;letter-spacing:0px;word-spacing:0px;text-anchor:end;fill:#ffffff;stroke-width:0.822063px"
         d="m 216.00252,434.32205 c -10.93649,0.1297 -22.11789,3.23984 -30.69923,10.21891 -8.22653,6.51471 -13.84135,16.14627 -15.59411,26.48199 -1.59883,8.93468 -1.21636,18.28938 1.47275,26.97836 2.67689,8.03424 7.40946,15.29436 13.1642,21.46235 5.23932,5.39632 11.28108,9.92459 17.23242,14.49356 4.61361,3.42989 9.30729,6.75524 13.79716,10.34852 2.17736,1.76449 4.54035,3.78348 6.6226,5.83059 2.95775,2.50424 4.55446,6.43452 4.19937,10.29166 -0.11255,3.65815 -2.13092,7.72945 -5.926,8.67784 -2.88124,0.79253 -6.14967,-0.44442 -7.71255,-3.0108 -2.43324,-3.51587 -1.9829,-7.97423 -1.97644,-12.0221 0.0884,-2.34886 -0.85696,-4.68911 -2.68784,-6.19147 -1.73745,-1.66245 -4.23373,-2.14125 -6.5595,-1.92552 -8.45059,0.0317 -16.91053,-0.0784 -25.35525,0.0728 -3.91699,0.44461 -6.99308,4.3469 -6.53175,8.26091 -0.0762,6.61229 -0.0574,13.33552 1.80682,19.74023 2.67965,9.8904 9.0001,18.77663 17.63369,24.33858 9.49721,6.28326 21.16034,8.58846 32.4204,8.02985 10.64278,-0.42897 21.39057,-3.78406 29.64166,-10.68032 7.9138,-6.45214 13.37337,-15.76749 15.23873,-25.79932 1.57546,-7.97077 1.59243,-16.30725 -0.27725,-24.22853 -2.39475,-9.33354 -8.02596,-17.61984 -15.15964,-24.00499 -8.01374,-7.36962 -16.78942,-13.82811 -25.46321,-20.38446 -4.419,-3.48451 -9.02837,-6.87221 -12.58823,-11.27852 -3.21635,-4.09219 -3.62132,-10.00979 -1.5867,-14.71077 1.20199,-2.41178 3.80491,-4.13399 6.54741,-3.86265 2.45205,-9.6e-4 4.52871,1.63481 5.75346,3.65313 2.18312,3.51856 1.61444,7.82803 1.65377,11.76786 -0.17908,2.95409 0.74533,6.34296 3.53543,7.82366 2.90222,1.61726 6.32794,0.86926 9.48716,1.03421 7.26341,-0.033 14.5379,0.1031 21.79419,-0.0942 4.05884,-0.5128 6.83945,-4.77533 6.32124,-8.71296 0.14677,-7.32555 -0.28232,-14.78087 -2.70866,-21.7558 -4.35253,-12.89888 -14.86134,-23.59745 -27.79162,-27.94534 -6.30738,-2.23085 -13.03956,-3.00608 -19.70448,-2.89736 z" /><path
         d="m 218.16552,601.62796 q -13.11736,0 -23.06845,-5.21918 -9.95108,-5.21919 -15.37897,-14.52291 -5.42785,-9.53066 -5.42785,-21.78435 v -6.58074 q 0,-1.13459 0.67847,-1.81533 0.90465,-0.90769 2.03543,-0.90769 h 26.00858 q 1.13078,0 1.80927,0.90769 0.90466,0.68074 0.90466,1.81533 v 4.99227 q 0,7.03452 3.61858,11.34604 3.61856,4.31148 9.04643,4.31148 5.42789,0 9.04647,-4.08457 3.61857,-4.08456 3.61857,-10.66526 0,-6.80762 -4.52322,-11.57297 -4.52323,-4.99223 -17.64058,-14.5229 -11.30806,-8.16914 -18.31907,-14.52293 -7.01099,-6.35375 -11.98651,-15.65751 -4.97557,-9.30375 -4.97557,-21.55742 0,-19.28827 11.98655,-30.8612 11.98654,-11.57296 31.66258,-11.57296 19.90217,0 31.88872,12.02679 12.21271,12.02677 12.21271,31.54196 v 5.44609 q 0,1.13459 -0.90465,2.04228 -0.67848,0.68074 -1.80927,0.68074 h -26.00857 q -1.13079,0 -2.03543,-0.68074 -0.67848,-0.90769 -0.67848,-2.04228 v -6.12687 q 0,-7.03453 -3.61858,-11.11908 -3.39241,-4.31148 -9.04645,-4.31148 -5.42788,0 -8.82029,4.08454 -3.39244,3.85765 -3.39244,10.89221 0,6.8076 4.29708,12.02679 4.29706,5.21915 16.9621,14.5229 14.022,10.43835 21.03299,17.01903 7.23715,6.35379 11.0819,14.29598 4.0709,7.71532 4.0709,18.60751 0,19.96899 -12.2127,31.76887 -12.21273,11.79987 -32.11491,11.79987 z"
         style="font-weight:bold;font-size:153.887px;line-height:98.4%;font-family:'Barlow Condensed';-inkscape-font-specification:'Barlow Condensed, ';text-align:end;letter-spacing:0px;word-spacing:0px;text-anchor:end;fill:#166a5d;stroke-width:0.822063px"
         id="path24057" /></g></g></g></svg>
